<?xml version="1.0" encoding="utf-8"?>
<!-- Generator: Adobe Illustrator 23.0.1, SVG Export Plug-In . SVG Version: 6.00 Build 0)  -->
<svg version="1.1" xmlns="http://www.w3.org/2000/svg" xmlns:xlink="http://www.w3.org/1999/xlink" x="0px" y="0px"
	 viewBox="0 0 393 266" style="enable-background:new 0 0 393 266;" xml:space="preserve">
<style type="text/css">
	.st0{fill:url(#SVGID_1_);}
	.st1{fill:#5589FF;}
	.st2{fill:#55D7FF;}
	.st3{fill:#55D78E;}
	.st4{fill:#C1D5F4;}
	.st5{fill:#FFD54B;}
	.st6{fill:#A6C1D1;}
	.st7{fill:#A6A1D1;}
	.st8{fill:#B4FFDA;}
	.st9{fill:#E6FFAD;}
	.st10{fill:url(#SVGID_2_);}
	.st11{fill:none;stroke:#000000;stroke-miterlimit:10;}
</style>
<g id="Layer_2">
	<path d="M279.58,136.15c-2.58-4.38-7.19-7.29-12.79-7.46c-16.42-0.48-30.44,12.48-31.2,28.88c-0.74,16.19,11.82,28.92,27.13,31.78
		c7.5,1.4,15.73,1.89,23.22,0.12c10.93-2.58,16.53-11.12,17.17-21.96C304.03,152.27,294.05,139.01,279.58,136.15z"/>
	<linearGradient id="SVGID_1_" gradientUnits="userSpaceOnUse" x1="203.4548" y1="22.4658" x2="174.4539" y2="360.8508">
		<stop  offset="0.1662" style="stop-color:#2EABE6"/>
		<stop  offset="0.2412" style="stop-color:#5385BF"/>
		<stop  offset="0.3342" style="stop-color:#7A5D95"/>
		<stop  offset="0.4294" style="stop-color:#9B3B73"/>
		<stop  offset="0.5257" style="stop-color:#B42158"/>
		<stop  offset="0.6236" style="stop-color:#C60F45"/>
		<stop  offset="0.7241" style="stop-color:#D0043A"/>
		<stop  offset="0.8311" style="stop-color:#D40036"/>
	</linearGradient>
	<path class="st0" d="M341.51,190.89c-0.49-1.91-1.44-3.76-2.2-5.56c-0.37-5.54-3.81-10.29-8.67-12.54
		c-0.42-0.39-0.81-0.73-0.94-0.86c-0.78-0.83-1.58-1.64-2.4-2.44c-2.24-2.2-4.58-4.28-7.01-6.26c-4.33-3.52-8.8-6.78-13.51-9.73
		c-0.72-0.62-1.53-1.16-2.44-1.57c-0.15-0.07-0.31-0.14-0.46-0.21c-1.04-0.48-2.12-0.85-3.21-1.14c-0.68-0.6-1.37-1.19-2.06-1.79
		c-2.21-1.94-4.43-3.86-6.67-5.77c-2.37-2.03-4.75-4.05-7.14-6.05c-0.71-1.64-1.7-3.23-2.94-4.71c-0.52-0.62-0.82-0.95-0.99-1.14
		c-0.14-0.23-0.33-0.52-0.62-0.94c-0.89-1.34-1.79-2.68-2.62-4.06c-1.39-2.31-2.67-4.68-3.87-7.09c-2.68-5.35-4.99-10.88-7.42-16.35
		c-2.42-5.45-4.91-10.93-8.04-16.02c-1.35-4.02-3.22-7.92-4.89-11.68c-3.09-6.96-7.17-13.54-12.47-19.05
		c-5.73-5.96-13.49-10.96-21.15-14.07c-5.79-2.35-12.02-2.52-18.2-2.07c-6.07-1.23-12.74,0.84-17.69,5.1
		c-0.45,0.39-0.85,0.81-1.23,1.25c-6.33,2.67-12.29,6.1-17.52,10.78c-1.9,1.7-3.51,3.65-5.27,5.49c-1.29,1.35-3.88,2.97-6.44,5.34
		c-4.44,4.11-8.06,9.22-11.88,13.9c-1.69,2.07-2.96,4.38-3.67,6.79c-0.41,0.54-0.82,1.08-1.2,1.63
		c-4.16,5.35-10.73,11.86-16.54,16.77c-2.26,1.91-3.62,4.72-4.13,7.74c-0.73,0.8-1.41,1.64-2.03,2.54
		c-11.3,10.24-21.98,18.91-35.91,26.19c-15.92,8.32-32.92,17.48-40.92,34.52c0.17,1.14-0.05,2.3-0.59,3.32
		c-0.14,0.27-0.31,0.52-0.49,0.76c0.07,0.33,0.12,0.67,0.12,1.01c-0.01,0.79-0.07,1.61-0.21,2.41c0.54,0.81,0.85,1.76,0.84,2.72
		c-0.01,0.62-0.05,1.23-0.04,1.84c0.03,0.09,0.04,0.19,0.07,0.28c0.3,0.86,0.29,1.73,0.06,2.53c2.24,4.54,6.75,7.81,13.02,8.04
		c22.01,0.8,43.25-5.89,64.06-12.52c4.52-0.22,8.94-1.62,12.45-4.32c0.08-0.06,0.16-0.13,0.24-0.19c1.83,0.23,3.78,0.14,5.82-0.36
		c3.12-0.77,6.09-2.04,8.82-3.72c0.77-0.15,1.54-0.3,2.31-0.45c3.56-0.68,7.13-1.33,10.7-1.96c5.87-1.03,11.7-2.12,17.37-2.65
		c13.58-1.28,24.87,0.71,37.91,3.93c5.78,1.42,11.96,2.55,17.46,4.87c4.15,1.75,10.69,5.34,15.65,7.91
		c12.13,6.28,24.09,12.86,35.9,19.71c3.15,1.83,6.87,2.35,10.38,1.7c2.81,1.27,5.72,2.39,8.68,3.2c7.03,1.91,14.5,2.5,21.72,1.57
		c8.01-1.03,16.01-3.85,20.21-11.39C342.18,201.48,342.8,195.92,341.51,190.89z"/>
	<path class="st1" d="M297.29,74.88c-0.18-0.85-0.77-1.48-1.51-1.83c1.2-3.94-1.24-9.59-3.49-12.87
		c-10.46-15.28-30.53-13.54-46.48-10.01c-0.47,0.1-0.86,0.29-1.17,0.52c-0.49-0.34-0.99-0.66-1.5-0.94
		c-3.39-1.85-6.42,3.33-3.03,5.18c3.23,1.76,5.51,5.44,7.64,8.32c2.28,3.1,4.32,6.32,6.05,9.75c3.33,6.59,5.42,13.96,9.61,20.08
		c0.05,0.08,0.12,0.14,0.18,0.21c0.04,1.92,1.39,3.94,2.12,5.55c1.88,4.13,3.76,8.26,5.66,12.39c1.68,3.64,3.36,7.3,5.33,10.8
		c1.92,3.42,4.86,6.6,5.69,10.48c0.8,3.77,6.59,2.18,5.79-1.6c-0.35-1.65-0.97-3.24-1.73-4.81c0.32-0.34,0.55-0.81,0.64-1.44
		c1.25-8.86,3.31-17.65,5.31-26.41c1.07-0.31,1.96-1.22,2-2.76c0.02-0.56,0-1.09,0-1.64c0.22-3.19,1.67-6.75,2.22-9.76
		C297.21,80.78,297.99,78.23,297.29,74.88z"/>
	<path class="st1" d="M359,152.13c-3.35-3.14-8.14-4.86-12.21-6.84c-4.86-2.36-9.9-4.76-14.01-8.33c-3.58-3.11-7.68-7.55-9.52-11.92
		c-1.29-3.08-2.61-6.08-6.11-7.03c-4.02-1.09-7.61,1.21-10.11,4.18c-3.41,4.05-8.89,14.68-15.05,14.03c-3.84-0.41-3.81,5.6,0,6
		c0.18,0.02,0.36,0.03,0.54,0.04c0.21,0.77,0.64,1.48,1.24,1.91c6.56,4.81,13.2,9.17,20.52,12.67c3.15,1.51,5.52,4.25,8.32,6.33
		c1.47,1.1,2.43,2.56,3.77,3.77c0.86,0.77,2.49,1.22,3.31,2.12c0.12,0.17,0.24,0.34,0.35,0.51c0.69,0.99,1.6,1.41,2.49,1.42
		c1,1.65,1.88,3.4,3.08,4.86c0.7,0.86,1.46,1.58,2.27,2.19c-0.52,1.79,0.35,3.91,2.72,3.74c0.84-0.06,1.53-0.21,2.13-0.6
		c0.92-0.3,1.87-0.51,2.84-0.61c1.73-0.22,2.7-1.5,2.85-2.82c3.49-1.4,6.75-4.36,8.96-6.97c0.29-0.35,0.49-0.71,0.61-1.08
		c1.39-0.88,2.05-2.5,1.39-4.46C362.48,161.23,363.94,156.76,359,152.13z"/>
	<path class="st1" d="M60.15,164.4c-1.49-4.83-5.82-6.32-9.6-3.04c-4.58,3.98-9.19,8.4-11.46,14.1c-2.45,6.14-2.39,13.05,0.74,18.98
		c1.8,3.42,6.98,0.39,5.18-3.03c-2.77-5.25-2.1-12.19,1.22-17.06c1.4-2.05,3.49-3.72,5.24-5.46c0.38-0.38,1.82-2.27,2.75-3
		c0.58,2.43-0.25,3.85-2.55,4.25c-3.73,1-2.15,6.79,1.6,5.79C58.36,174.56,61.79,169.72,60.15,164.4z"/>
	<path class="st1" d="M113.04,110.45c-8-5.58-8.56-18.99-19.61-21.01c-3.92-0.71-7.29,0.77-9.06,4.36c-1.7,3.46-2.79,5.47-6.2,7.55
		c-2.66,1.62-5.32,3.24-7.99,4.85c-5.64,3.41-10.89,5.78-17.27,7.43c-2.71,0.7-4.73,2.07-6.12,3.99c-4.83,1.42-5.48,8.36-4.84,12.99
		c0.97,7.04,4.68,13.65,10.96,17.24c2.42,1.38,5.81,2.84,8.67,2.43c3.1-0.45,5.64-3.32,8.4-4.71c3.76-1.88,7.82-3.15,11.4-5.38
		c1.92-1.2,3.64-2.65,5.41-4.02c0.52,0.02,1.09-0.1,1.68-0.43c1.84-1.03,3.45-2.22,5-3.64c0.2-0.19,0.35-0.4,0.48-0.62
		c0.74-0.36,1.43-0.69,1.93-1c2.26-1.41,4.42-2.95,6.52-4.58c4.11-3.2,7.83-6.79,11.24-10.72
		C114.98,113.62,114.69,111.6,113.04,110.45z"/>
	<path class="st1" d="M178.68,41.74c-2.8-1.21-6.11-1.34-8.78-2.75c-2.45-1.29-4.46-2.79-7.17-3.64c-0.61-0.19-1.26-0.13-1.85,0.1
		c-6.31-3.39-13.01-4.38-20.16-3.56c-13.67,1.56-24.77,14.71-27.08,27.9c-1.33,7.61-0.21,15.22,1.11,22.75
		c0.8,4.54,1.82,9.08,2.46,13.65c0.47,3.37-0.62,6.92,0.36,10.13c1.13,3.68,6.92,2.11,5.79-1.6c-0.22-0.71-0.18-1.61-0.08-2.56
		c0.69-0.02,1.38-0.26,1.93-0.79c4.13-3.87,7.37-8.45,10.98-12.77c3.23-3.86,7.74-6.95,9.76-11.67c0.46-1.07,0.38-2.17-0.09-3.01
		c4.9-5.12,10.43-9.78,14.47-15.46c1.09-0.58,2.05-1.38,2.98-2.25c0.65,0.13,1.33,0.03,1.94-0.42c1.38-1.03,2.49-2.09,3.37-3.43
		c2.92-2.4,6.72-3.81,10.05-5.43C180.57,46,180.72,42.62,178.68,41.74z"/>
	<path class="st2" d="M89.7,191.05c1.73-1.88,1.22-4.36,0.33-6.48c-2.58-6.12-9.75-9.07-15.92-5.96c-1.43,0.72-2.32,1.73-3.36,2.93
		c-1.47,1.69-3,2.59-4.83,3.84c-1.64,1.12-2.87,2.69-4.56,3.71c-1.98,1.2-4.46,1.48-6.77,1.76c-3.98,0.48-8.27-1.05-7.01-5.86
		c0.58-2.2,2.32-3.63,3.97-5.09c1.48-0.26,2.88-0.65,4.03-1.3c2.24-1.27,2.33-3.09,3.28-5.16c1.24-2.69,2.53-4.29,2.09-7.55
		c-0.42-3.17-2.14-4.95-4.98-6.11c-0.85-0.35-1.59-0.28-2.17,0.04c-0.26-0.07-0.52-0.11-0.8-0.09c-6.57,0.58-11.44,10.1-13.6,15.36
		c-2.65,6.47-4.21,15.52,0.8,21.31c5.38,6.21,13.38,5.16,20.68,4.13c7.59-1.07,16.04-1.33,23.49-3.77c1.37-0.39,2.63-0.9,3.98-1.57
		c1.75-0.87,1.84-2.59,1.07-3.88C89.52,191.23,89.62,191.14,89.7,191.05z"/>
	<path class="st2" d="M337.48,180.7c-2.23-2.82-3.4-6.83-6.48-8.93c-3.12-2.12-7.47-1.97-10.76-0.32c-7.76,3.88-2.95,11.6,1.3,16.19
		c3.05,3.3,9.9,8.89,6.1,13.8c-3.88,5.03-11.83-0.56-15.9-2.86c-5.63-3.18-12.29-12.61-19.91-8.59c-3.29,1.74-5.2,5.43-4.18,9.02
		c0.06,0.2,0.13,0.42,0.2,0.64c-0.2,1.43-0.11,2.94,0.16,4.43c0.55,3.04,1.87,8.19,4.72,10.05c3.57,2.34,10.01,2.55,14.18,3.12
		c4.52,0.62,9.45,1.11,13.97,0.25c7.4-1.4,14.97-5.88,17.94-12.9C342.17,196.76,343.09,187.78,337.48,180.7z"/>
	<path class="st3" d="M221.1,127.7c-1.8-3.28-4.99-6.82-8.64-8.03c-4.68-1.55-11.13-0.58-16.03-0.68
		c-4.58-0.09-11.21-1.44-15.54,0.37c-3.77,1.58-7.1,6.8-9.42,9.99c-2.63,3.61-2.9,6.69-1.96,11.01c1.16,5.31,2.2,11.22,5.18,15.84
		c0.88,1.36,2.3,1.61,3.51,1.21c3.22,3.05,9.08,0.29,11.62,4.15c1.11,1.69,4.2,2.2,5.18,0c3.36-7.52,25.28,2.51,23.96-9.39
		c-0.07-0.59-0.26-1.12-0.55-1.55c1.87-3.25,5.89-5.87,6.33-9.73C225.19,136.94,222.98,131.13,221.1,127.7z"/>
	<path class="st3" d="M260.8,203.59c-7.23,1.66-14.47,3.36-21.54,5.56c-3.69,0.59-7.35,1.33-10.84,2.71
		c-5.34,2.11-10.46,5.97-15.8,8.98c-4.54,2.08-9.15,3.17-14.51,1.13c-2.54-0.97-4.95-2.15-7.4-3.1c-0.41-0.89-1.29-1.56-2.62-1.57
		c-1.12,0-2.23,0-3.35-0.01c-1.14-0.12-2.31-0.14-3.53-0.01c-1.65,0.18-2.61,1.36-2.83,2.63c-3.35,0.56-6.69,0.54-9.84-0.52
		c-0.71-0.35-1.41-0.71-2.12-1.06c-0.25-0.13-0.51-0.2-0.77-0.25c-0.22-0.13-0.44-0.27-0.65-0.41c-2.22-2.04-4.28-4.24-6.15-6.61
		c-2.28-2.89-4.16-6.11-6.37-9.06c-0.56-0.86-1.13-1.71-1.73-2.54c-3.47-4.8-7.62-9.12-13.29-11.24
		c-6.51-2.43-13.58-1.71-20.32-0.89c-3.06,0.37-4.41,5.12-0.8,5.89c11.21,2.39,24.27,3.05,31.65,12.82c1.74,2.72,3.4,5.52,5.29,8.1
		c2.5,3.41,5.4,6.63,8.95,8.9c0.5,0.47,1.02,0.92,1.54,1.38c1.17,1.37,2.53,2.46,4.26,3.35c1.31,0.67,2.5,0.42,3.32-0.27
		c0.37,0.18,0.73,0.37,1.1,0.55c0.74,0.37,1.47,0.42,2.11,0.25c2.71,0.62,5.44,1.18,8.23,1.36c3.54,0.23,6.47,0.36,9.84,1.65
		c1.16,0.45,2.11,0.14,2.74-0.52c5.78,0.77,10.8-0.54,15.56-2.74c2.35-0.76,4.64-1.82,6.89-3.02c7.04-3.75,13.89-7.21,21.53-9.66
		c0.62-0.2,1.24-0.39,1.86-0.58c7.47-1.27,15.09-1.96,21.9-5.71C266.17,207.39,264.04,202.85,260.8,203.59z"/>
	<path class="st1" d="M195.49,100.47c-0.33-0.88-1.23-1.72-1.48-2.62c-0.47-1.66,0.11-3.74,0.61-5.34c0.49-1.57-1.43-2.31-2.51-1.46
		c-4.31,3.42-9.48,3.93-14.65,4.42c-2.24-0.08-4.34,0.19-6.6,0.85c-0.54,0.16-0.85,0.5-0.99,0.89c-2.84,0.4-5.61,1.03-8.22,2.74
		c-3.59,2.35-7.16,6.34-8.16,10.62c-2.19,9.41,2.51,21.21,11.74,24.72c0.57,0.22,1.43-0.14,1.69-0.69
		c1.97-4.05,4.22-7.91,6.97-11.48c3.97-5.14,10.16-5.31,16.17-4.53c1.91,0.25,1.89-2.76,0-3c-0.42-0.05-0.86-0.1-1.3-0.15
		c0.37-0.42,0.5-1.01,0.08-1.63c-0.66-0.82-1.11-1.74-1.38-2.77c-0.06-0.19-0.15-0.34-0.25-0.48c1.75-1.5,5.99-3.58,6.33-3.82
		c0.97-0.68,1.89-1.46,2.27-2.63C196.22,102.89,195.91,101.61,195.49,100.47z M182.54,104.76c-0.01,0.01-0.01,0.01-0.02,0.02
		c-0.07-0.37-0.21-0.73-0.43-1.08c0.46-0.04,0.91-0.09,1.32-0.16c0.43-0.06,0.86-0.14,1.29-0.23
		C183.93,103.78,182.97,104.37,182.54,104.76z"/>
	<path class="st1" d="M245.08,118.52c-0.01-0.46-0.22-0.82-0.53-1.08c0.31-0.34,0.47-0.81,0.31-1.35
		c-1.6-5.66-5.98-8.87-11.02-11.46c-3.14-1.62-6.25-3.24-9.31-5.01c-2.41-1.39-7.45-3.07-10.31-5.38c0.01-0.41-0.11-0.81-0.37-1.1
		c-0.67-0.73-1.34-1.46-2.01-2.2c-1.03-1.13-2.89,0.06-2.51,1.46c0.1,0.37,0.23,0.72,0.37,1.05c-2.54,1.55-4.52,5.04-5.36,7.37
		c-1.72,4.8,3.09,9.41,4.23,13.91c0,0.01,0.01,0.03,0.01,0.04c-0.88,0.2-1.79,0.49-2.75,0.9c-1.77,0.76-0.24,3.34,1.51,2.59
		c11.66-4.98,16.24,12.22,19.66,19.52c0.36,0.77,1.38,0.87,2.05,0.54c4.46-2.19,8.38-2.8,11.5-7c0.12-0.16,0.22-0.34,0.34-0.5
		c0.56,0.02,1.15-0.19,1.48-0.64C244.94,126.69,245.14,122.72,245.08,118.52z"/>
	<path class="st4" d="M207.78,94.03c1.51-1.72,0.69-5.47-2.12-5.12c-3.79,0.47-7.72-1.47-9.37,2.03c-0.2,0.31-0.34,0.67-0.37,1.07
		c-0.07,0.25-0.14,0.51-0.19,0.8c-0.45,2.47,0.29,4.69,0.78,7.07c0.35,1.72,0.57,3.36,0.16,5.08c-0.35,1.48-1.37,2.54-2.07,3.8
		c-0.57-0.07-1.18,0.06-1.81,0.44c-0.51,0.31-1.02,0.62-1.52,0.94c-2.13,1.31-1.86,4.85,0.72,5.48c2.19,0.54,3.59,1.83,5.96,1.84
		c2.23,0.01,3.92-1.06,5.97-1.73c2.8-0.91,2.9-4.92,0-5.79c-0.69-0.21-1.61-0.38-2.53-0.59c0.23-0.37,0.44-0.76,0.6-1.18
		c0.77-2.01,1.02-4.2,0.87-6.34c-0.06-0.82-0.2-1.62-0.37-2.41c0.29-0.14,0.58-0.32,0.83-0.58
		C204.85,97.28,206.33,95.68,207.78,94.03z"/>
	<path class="st4" d="M237.82,217c-5.09,1.61-9.93,3.75-14.54,6.46c-0.65,0.38-1.05,0.89-1.26,1.45c-0.98-0.2-2.04-0.21-3.12-0.04
		c-3.8,0.62-2.19,6.4,1.6,5.79c0.33,0.31,0.65,0.62,0.98,0.92c1.29,2.74,5.66,1.33,5.59-1.51c0.02,0.63,2.75-1.13,3-1.3
		c1.58-1.08,2.93-0.8,4.67-1.43c2.61-0.95,4.89-3.77,6.47-5.93C242.77,219.28,240.18,216.26,237.82,217z"/>
	<path class="st4" d="M153.07,215.28c-1.03-1.74-2.24-3.29-3.67-4.73c-0.46-0.46-0.97-0.71-1.47-0.82c-0.8-1.79-1.53-3.69-2.53-4.73
		c-2.78-2.89-6.62-5.11-10.04-7.14c-2.71-1.61-5.39,1.52-4.1,4.1c0.2,0.39,0.56,1.03,0.89,1.71c-0.07,0.27-0.12,0.55-0.11,0.86
		c0.03,1.52,0.35,2.69,1.12,3.98c0.49,0.83,1.31,1.29,2.16,1.4c0.52,0.59,1.06,1.16,1.66,1.68c1.56,1.33,5.47,2.52,4.88,4.95
		c-0.85,3.52,4.2,5.15,5.57,2.22c0.64,0.39,1.37,0.7,2.25,0.91C152.18,220.29,154.44,217.59,153.07,215.28z"/>
	<path class="st4" d="M257.61,198.52c-4.24-1.06-8.27-2.67-12.19-4.56c-0.39-0.48-0.88-0.91-1.47-1.33
		c-2.98-2.14-6.85-3.66-10.3-5.26c-0.51-0.27-1.03-0.51-1.56-0.75c-0.05-0.03-0.11-0.05-0.17-0.08c0,0,0,0,0,0.01
		c-0.24-0.1-0.47-0.21-0.71-0.31c-0.22-0.09-0.43-0.14-0.64-0.16c-0.7-0.56-1.49-1.06-2.37-1.51c-6.91-3.51-15.65-5.15-23.24-6.42
		c-8.62-1.44-17.34-3.01-26.07-1.94c-4.89,0.6-9.62,0.28-13.95,1.31c-0.25-0.17-0.54-0.31-0.85-0.38c-3.84-0.9-9.29,0.53-13.17,1.22
		c-2.45,0.43-4.88,0.98-7.26,1.69c-2.93,0.87-5.7,2.49-8.83,2.16c-3.84-0.4-3.81,5.6,0,6c1.45,0.15,2.86-0.01,4.24-0.33
		c0.22,0.61,0.63,1.15,1.24,1.45c3.89,1.9,7.96,2.78,10.04,6.99c0.38,0.78,1.01,1.21,1.7,1.38c0.59,2.71,1.83,5.43,3.7,8.11
		c2.03,2.92,5.15,4.96,7.22,6.89c3.08,2.88,5.39,5.14,9.89,5.64c6.44,0.71,12.83-1.14,19.32-1.42c0.87,1.3,1.99,2.47,3.32,3.44
		c3.6,2.64,8.16,2.97,12.36,1.88c1.56-0.4,2.99-1.27,4.21-2.41c0.33-0.15,0.66-0.31,0.99-0.5c0.33-0.19,0.64-0.35,0.94-0.5
		c1.09-0.41,2.17-0.82,3.26-1.23c2.32-0.88,4.3-2.35,5.69-4.22c0.32-0.03,0.65-0.09,0.98-0.24c1.61-0.68,2.97-1.76,4.33-2.82
		c0.76,0.29,1.61,0.3,2.43-0.17c7.74-4.47,17.32-6.09,26.14-5.73C260.2,204.55,260.89,199.34,257.61,198.52z"/>
	<path class="st5" d="M221.96,201.59c-0.04-0.06-0.07-0.12-0.11-0.19c-0.01-0.04-0.01-0.06-0.02-0.11c-0.02-0.4-0.14-0.77-0.36-1.12
		c-0.16-0.28-0.41-0.55-0.64-0.78c-0.52-0.51-0.7-0.62-0.74-0.58c-0.14-0.2-0.28-0.4-0.3-0.42c-0.34-0.37-0.67-0.62-1.13-0.83
		c-0.44-0.21-0.92-0.34-1.41-0.35c-0.27-0.01-1.6,0.08-0.88,0.08c-0.29,0-0.55,0.05-0.8,0.11c-0.18-0.04-0.36-0.07-0.54-0.07
		c-3.78-0.17-5.07,4.52-4.23,7.52c0.85,3.06,4.41,4.35,7.31,3.68c0.76-0.17,1.43-0.5,2.01-1.01c0.28-0.24,0.44-0.49,0.68-0.76
		c0.55-0.64-0.03,0.09,0.38-0.35C222.5,205.04,222.85,203.32,221.96,201.59z"/>
	<path class="st5" d="M208.23,191.45c-0.21-3.01-2.49-5.36-5.61-5.22c-3.08,0.13-5.29,2.38-6.19,5.17
		c-0.34,1.07,0.08,2.21,0.86,2.96c1.02,2.79,3.84,3.69,6.61,3.28C207.04,197.18,208.43,194.42,208.23,191.45z"/>
	<path class="st5" d="M203.45,204.8c-1.39-2.76-4.31-2.97-7.01-2.52c-0.41,0.07-0.78,0.26-1.09,0.52c-1.26,0.37-2.02,1.53-2.16,2.87
		c0.03-0.29-0.06,0.17-0.08,0.22c-0.09,0.26-0.19,0.52-0.29,0.78c-0.22,0.59-0.36,1.23-0.34,1.87c0.04,1.33,0.65,2.6,1.61,3.52
		c2.18,2.1,5.71,1.91,7.9-0.05C203.96,210.25,204.64,207.17,203.45,204.8z"/>
	<path class="st5" d="M186.21,204.53c-0.09-0.33-0.34-1.18-0.67-1.5c0-0.13,0.02-0.26,0-0.4c-0.12-0.95-0.66-1.85-1.49-2.35
		c-1.16-0.69-2.64-0.62-3.95-0.74c-0.61-0.06-1.19,0.14-1.67,0.49c-0.07-0.01-0.14-0.02-0.2-0.02c-1.79,0-2.8,1.39-3,3
		c-0.02,0.09-0.01,0.19-0.01,0.29c-0.5,0.68-0.76,1.48-0.67,2.48c0.11,1.17,0.74,2.41,1.55,3.28c1.96,2.1,5.31,2.64,7.62,0.86
		c1.04-0.81,2.07-1.84,2.45-3.14C186.36,206.09,186.4,205.25,186.21,204.53z"/>
	<path class="st5" d="M184.42,184.51c-0.9-0.84-2.14-1.29-3.37-1.29c-0.77,0-1.5,0.19-2.19,0.53c-0.22,0.11-1.19,0.61-1.22,0.7
		c-0.67,0.25-1.24,0.7-1.86,1.42c-1.06,1.21-1.31,2.33-1.25,3.91c0.05,1.25,0.83,2.36,1.95,2.79c0.94,1.37,2.52,2.27,4.28,2.4
		c2.32,0.17,4.49-1.59,5.42-3.64C187.2,189.07,186.18,186.15,184.42,184.51z"/>
	<path class="st5" d="M169.72,193.61c-1.13-2.45-3.3-3.6-5.95-3.32c-0.58,0.06-1.12,0.24-1.59,0.53c-1.33-0.03-2.71,0.83-3.01,2.18
		c-0.56,2.53-0.5,5.58,1.46,7.53c1.99,1.98,4.92,1.59,7.18,0.3c1.16-0.66,2.16-1.76,2.53-3.06
		C170.77,196.31,170.33,194.93,169.72,193.61z"/>
	<path class="st5" d="M235.6,227.7c-0.6,0.34-0.99,0.31-1.67,0.31c-1.11,0-2.01,0.21-3,0.71c-0.49,0.25-0.85,0.66-1.1,1.13
		c-2.42,0.26-3.9,3.99-1.24,5.63c1.96,1.21,4.88,1.78,7.02,0.78c2.18-1.01,3.58-2.97,4.39-5.17
		C240.95,228.54,237.73,226.48,235.6,227.7z"/>
	<path class="st5" d="M141.52,216.78c-0.17-1.11-0.8-2.13-1.77-2.73c-0.75-0.46-1.88-0.61-2.39-0.72c-0.37-0.08-0.74-0.09-1.1-0.05
		c-0.42-0.83-1.04-1.58-1.78-2.23c-1.22-1.06-3.04-1.2-4.24,0c-1.09,1.09-1.23,3.17,0,4.24c0.03,0.02,0.09,0.08,0.17,0.16
		c-0.09,0.17-0.17,0.35-0.22,0.54c-0.57,2.14,0.8,3.92,2.57,4.99c1.66,1,3.78,0.99,5.6,0.43
		C140.34,220.81,141.84,218.93,141.52,216.78z"/>
	<path class="st5" d="M202.27,109.77c-0.53,0.18-1.06,0.34-1.59,0.48c-0.43-1.13-1.66-2.03-2.84-1.97c-1.03,0.05-1.82,0.5-2.34,1.21
		c-0.36-0.09-0.74-0.13-1.17-0.1c-0.58,0.04-1.59,0.55-1.98,0.56c-3.16,0.06-3.84,3.9-1.51,5.59c1.71,1.24,3.29,2.12,5.28,1.92
		c0.06,0.02,0.12,0.05,0.19,0.07c1.09,0.25,2.09-0.05,2.8-0.72c1.6-0.36,3.2-0.69,4.76-1.23
		C207.49,114.3,205.93,108.5,202.27,109.77z"/>
	<path d="M205.3,109.73c-3.09-1.46-6.34-2.16-9.76-1.73c-1.14,0.14-2.15,0.71-2.65,1.64c-2.65,0.09-4.37,4.01-1.49,5.54
		c2.49,1.33,4.8,2.78,7.72,2.04c1.23-0.31,2.26-1.02,3.43-1.47c0.87-0.33,1.83-0.44,2.75-0.84
		C207.31,114.04,207.22,110.63,205.3,109.73z"/>
	<path class="st6" d="M224.65,134.88c-0.92-4.66-2.48-9.08-5.88-12.56c-3.91-3.99-8.65-3.18-13.78-2.84
		c-4.76,0.31-11.34,1.55-15.39,1.16c-1.64-0.16-4.71-1.36-7.32-0.83c-2.43,0.49-4.63,1.54-6.54,3.13
		c-3.24,2.69-5.03,6.29-6.08,10.22c-1.79,1.69-2.7,4.13-1.64,6.9c0.98,2.56,2.42,4.77,4.56,6.2c-0.65,2.23-0.71,4.68-0.13,6.84
		c1.05,3.9,4.33,6.05,8.2,6.38c1.39,0.12,2.91-0.27,4.25-0.07c1.62,0.24,3.18,1.3,4.63,2.01c3.81,1.88,7.8,0.87,10.22-2.64
		c0.57-0.02,1.13-0.04,1.7-0.04c1.29-0.03,2.58-0.04,3.86-0.06c2.43-0.04,5.37,0.27,7.74-0.49c2.46-0.79,4.51-2.74,5.5-5.12
		c1-2.36,0.57-3.64,2.06-5.63C223.64,143.39,225.66,140.04,224.65,134.88z"/>
	<path class="st7" d="M242.55,110.28c-3.74-4.63-8.16-6.42-13.46-8.56c-3.65-1.47-8.27-4.14-10.85-7.11
		c-1.79-2.07-4.07-2.6-6.21-2.14c0.01-0.32,0.02-0.64,0.03-0.96c0.04-1.49-2.07-1.39-2.25,0c-0.06,0.46-0.43,0.71-0.81,0.89
		c-0.76,0.35-0.7,1.14-0.26,1.63c-1.33,1-2.41,2.37-3.02,3.89c-1.85,4.61-3.46,9.15,0.53,13.28c0.86,0.89,1.65,1.49,2.41,2.27
		c-0.15,0.13-0.29,0.3-0.37,0.53c-0.12,0.37-0.16,0.6-0.15,0.98c-0.85,0.23-1.6,0.85-2.49,0.86c-1.45,0.02-1.45,2.27,0,2.25
		c0.59-0.01,1.13-0.15,1.67-0.38c0.4-0.17,1-0.6,1.44-0.57c0.47,0.03,0.82,0.49,1.23,0.71c0.51,0.28,1.02,0.31,1.58,0.19
		c0.32-0.07,0.53-0.26,0.66-0.5c0.64,0.63,1.34,1.23,2.16,1.8c1.5,1.05,2.98,1.44,4.34,1.34c1.02,4.74,2.71,9.22,4.88,13.56
		c2.72,5.43,9.97,4.27,12.95,0c-0.86,1.22-0.52,0.58,0.94,0.02c1.34-0.51,2.54-1.23,3.62-2.18c1.97-1.75,3.33-4.27,3.99-6.81
		C246.42,120.13,245.95,114.49,242.55,110.28z"/>
	<path class="st7" d="M187.99,110.21c0.05-0.06,0.32-0.42,0.55-0.76c0.46-0.2,1.1-0.55,1.28-0.64c3.74-1.88,5.82-5.79,5.08-9.95
		c-0.24-1.36-0.78-2.53-1.54-3.48c0.02-0.27-0.01-0.56-0.1-0.82c-0.09-0.29-0.26-0.49-0.47-0.62c0.58-0.79,0.8-1.72,0-2.62
		c-0.88-1-2.28,0.26-1.77,1.31c-0.03,0.03-0.09,0.08-0.18,0.16c0,0-0.01,0.01-0.01,0.01c-0.25-0.11-0.53-0.18-0.81-0.17
		c-0.33,0.01-0.63,0.13-0.88,0.3c-0.76-0.13-1.57-0.15-2.41-0.03c-4.67,0.66-9.46,2.29-14.14,3.18
		c-8.13,1.55-18.67,7.14-20.69,15.87c-2.04,8.85,2.95,17.61,10.12,22.43c4.95,3.33,9.65-2.07,8.63-6.69
		c1.36-0.61,2.54-1.71,3.22-3.38c0.02-0.05,0.05-0.11,0.07-0.16c0.47-0.44,0.94-0.91,1.44-1.34c0.85-0.74,1.75-1.38,2.73-1.96
		c0.63-0.37,2.68-0.86,1.27-1.07c2.34,0.35,5.04-0.16,6.45-2.24c0.69,0.13,1.6,0.31,2.36,0.24c0.6,0.11,1.2,0.23,1.8,0.39
		c1.4,0.37,2-1.8,0.6-2.17c-0.35-0.09-0.71-0.17-1.06-0.25c-0.25-1.25-1.17-2.39-2.16-3.16c-0.02-0.3-0.13-0.91-0.26-1.5
		C187.42,110.83,187.71,110.54,187.99,110.21z"/>
	<path class="st8" d="M197.81,106.67c-7.72,0-7.73,12,0,12C205.54,118.67,205.55,106.67,197.81,106.67z"/>
	<path class="st9" d="M197.67,106.95c-7.72,0-7.73,12,0,12C205.4,118.95,205.41,106.95,197.67,106.95z"/>
	<path class="st9" d="M216.06,197.2c-7.72,0-7.73,12,0,12C223.78,209.2,223.79,197.2,216.06,197.2z"/>
	<path class="st9" d="M164.57,190.08c-7.72,0-7.73,12,0,12C172.29,202.08,172.3,190.08,164.57,190.08z"/>
	<path class="st9" d="M285.66,55.56c-1.22,0.56-1.67,2.12-1.35,3.38c-0.18,0.12-0.36,0.25-0.44,0.29c-0.76,0.42-1.55,0.86-2.18,1.47
		c-0.3,0.29-0.57,0.63-0.79,1c-1.09-0.42-2.52-0.1-3.3,0.69c-1.26,1.26-1,2.96,0,4.24c1.39,1.78,3.57,4.18,6.06,2.72
		c1.09-0.64,1.84-1.79,2.23-2.97c0.17-0.5,0.26-1.05,0.31-1.59c0.23-0.13,0.47-0.27,0.71-0.39c2.09-1.16,4.06-2.88,4.08-5.48
		C291,55.95,288.3,54.36,285.66,55.56z"/>
	<path class="st9" d="M135.31,48.17c-0.52-1.17-1.64-1.94-2.93-2c-0.42-0.02-0.75,0.05-1.05,0.15c-0.53-0.58-0.92-1.32-1.32-2
		c-0.35-0.58-0.71-1.16-1.16-1.68c-0.05-0.05-0.12-0.12-0.2-0.18c0.18-2.42-2.94-4.68-5.07-2.44c-0.46,0.49-0.94,0.95-1.27,1.54
		c-0.51,0.93-0.57,2.1,0,3.03c0.63,1.02,1.7,1.51,2.36,2.48c0.79,1.16,1.4,2.36,2.36,3.4c0.2,0.21,0.4,0.42,0.62,0.63
		c0.04,1.99,2.19,4.02,4.52,2.78C134.37,52.72,136.53,50.94,135.31,48.17z"/>
	<path class="st9" d="M202.84,63.1c-7.59,0-10.92,6.63-9.99,12.43c-1.41,0.47-1.25,2.91,0.5,2.91c0.13,0,0.25-0.01,0.36-0.04
		c1.46,3.23,4.5,5.69,9.13,5.69C216.35,84.1,216.37,63.1,202.84,63.1z"/>
	<linearGradient id="SVGID_2_" gradientUnits="userSpaceOnUse" x1="204.6264" y1="28.9512" x2="203.3812" y2="110.5747">
		<stop  offset="0.3589" style="stop-color:#2EABE6"/>
		<stop  offset="0.3711" style="stop-color:#38AEE7"/>
		<stop  offset="0.4259" style="stop-color:#62BAEB"/>
		<stop  offset="0.482" style="stop-color:#84C4EE"/>
		<stop  offset="0.5387" style="stop-color:#9FCBF1"/>
		<stop  offset="0.5964" style="stop-color:#B2D1F3"/>
		<stop  offset="0.6556" style="stop-color:#BDD4F4"/>
		<stop  offset="0.7187" style="stop-color:#C1D5F4"/>
	</linearGradient>
	<path class="st10" d="M227.13,62.76c-1.05-2.64-2.32-5.19-4.42-7.18c-0.33-0.31-1.67-1.42-2.85-2.13c-1.4-3.42-4.04-5.35-6.98-6.06
		c1.35-1.71,0.61-4.97-2.24-4.97c-2.76,0-3.54,3.07-2.35,4.81c-3.44,0.55-6.61,2.55-8.06,5.62c-0.68,0.42-1.39,0.86-2.15,1.27
		c-7.97,4.29-18.85,5.05-18.85,16.76c0,10.29,9.42,15.53,18.54,15.3c5.63,3.99,14.03,1.05,20.33,0.02c3.84-0.63,6.02-3.81,7.07-7.2
		c0.1,0.03,0.45-0.36,1.27-1.47c1.17-1.59,1.71-3.04,2.07-4.97C229.14,69.26,228.36,65.83,227.13,62.76z"/>
	<path class="st4" d="M207.42,87.93c-1.95,0.03-6.2,0.58-7.58-1.08c-1.13-1.35-3.13,0.37-2.36,1.82c0.09,0.48,0.04,0.94-0.16,1.37
		c-0.59,1.84,2.3,2.63,2.89,0.8c0.03-0.1,0.06-0.21,0.09-0.31c2.28,0.66,5.16,0.44,7.11,0.41
		C209.35,90.89,209.36,87.89,207.42,87.93z"/>
</g>
<g id="Layer_1">
	<g>
		<g>
			<path d="M191.5,174c-25.6-2.03-50.37,5.29-74.62,12.57c-11.96,3.59-23.93,7.21-36.16,9.75c-6.45,1.34-12.97,2.38-19.54,2.91
				c-7.7,0.63-17.98,2.39-21.25-6.62c-4.69-12.92,5-26.68,14.54-34.44c10.24-8.33,22.88-12.99,34.11-19.72
				c18.75-11.24,32.4-28.52,45.71-45.46c13.13-16.72,26.66-34.2,45.45-44.92c12.17-6.94,26.25-10.59,39.81-5.54
				c11.93,4.45,21.35,13.93,28.13,24.46c13.95,21.66,18.67,48.23,35.06,68.49c7.7,9.52,17.81,15.79,28.07,22.19
				c11.23,7,23.79,15.39,27.9,28.74c2.26,7.34,1.84,16.09-3.23,22.22c-4.26,5.15-10.79,7.45-17.27,8.02
				c-14.97,1.33-31.05-4.23-44.45-10.38c-14.07-6.46-26.78-15.48-40.97-21.73C219.6,178.73,205.86,175.11,191.5,174
				c-1.93-0.15-1.92,2.85,0,3c15.65,1.21,30.53,5.6,44.66,12.38c13.56,6.51,25.92,15.24,39.8,21.12
				c17.63,7.46,54.11,19.22,64.9-4.99c4.63-10.38,1.38-22.46-5.2-31.19c-7.93-10.52-19.79-16.85-30.67-23.8
				c-12.91-8.25-22.47-18.41-29.69-31.94c-6.74-12.64-11.31-26.27-17.45-39.2c-10.47-22.05-29.6-45.21-56.75-42.02
				c-24,2.82-43.12,21.9-57.79,39.55c-15.27,18.38-28.71,39.03-48.09,53.48c-19.68,14.67-51.62,21.19-58.44,48.34
				c-2.29,9.12-0.44,22.14,10.72,23.72c12.73,1.8,27.44-1.63,39.78-4.53c27.84-6.54,54.71-18.03,83.37-20.75
				c6.94-0.66,13.88-0.72,20.82-0.17C193.42,177.15,193.41,174.15,191.5,174L191.5,174z"/>
		</g>
	</g>
	<g>
		<g>
			<path d="M117.95,112.9c3.8-11.7-0.78-22.7-2.11-34.37c-1.28-11.21-1.21-24.63,5.56-34.22c6.77-9.58,18.66-12.59,29.84-11.17
				c11.75,1.49,20.78,9.05,31.88,12.37c1.85,0.55,2.65-2.34,0.8-2.89c-11.86-3.54-21.18-11.43-33.88-12.63
				c-10.11-0.95-20.95,1.55-28.18,9.05c-7.84,8.13-9.69,19.87-9.54,30.74c0.2,13.97,7.18,28.65,2.73,42.32
				C114.46,113.94,117.35,114.73,117.95,112.9L117.95,112.9z"/>
		</g>
	</g>
	<g>
		<g>
			<path d="M289,138.5c-1.25-15.11,3.59-28.92,7.4-43.28c3.02-11.38,4.63-24.72-1.95-35.22c-5.08-8.11-14.01-12.59-23.31-13.76
				c-4.87-0.62-9.71-0.31-14.51,0.65c-7.01,1.39-14.02,1.75-21.14,2.11c-1.92,0.1-1.93,3.1,0,3c5.56-0.29,11.14-0.46,16.66-1.25
				c4.98-0.71,9.73-1.99,14.8-1.84c10.89,0.31,21.85,5.29,26.48,15.64c5.35,11.95,1.44,25.41-2.12,37.26
				c-3.57,11.88-6.36,24.22-5.33,36.69C286.16,140.41,289.16,140.43,289,138.5L289,138.5z"/>
		</g>
	</g>
	<circle class="st11" cx="164.6" cy="196.02" r="6"/>
	<circle class="st11" cx="180.67" cy="189.1" r="6"/>
	<circle class="st11" cx="180.51" cy="205.23" r="6"/>
	<circle class="st11" cx="216.13" cy="202.96" r="6"/>
	<circle class="st11" cx="202.47" cy="192.04" r="6"/>
	<circle class="st11" cx="198.35" cy="207.63" r="6"/>
	<g>
		<g>
			<path d="M113.26,190.8c8.3-3.9,17.86-4.23,26.26-0.37c7.52,3.45,10.64,10.1,15.14,16.54c5.07,7.26,13.02,15.83,22.69,13.41
				c2.45-0.61,4.85-1.46,7.31-2.04c3.07-0.73,4.52-0.39,7.1,1.42c3.92,2.76,7.74,5.92,12.83,5.64c4.66-0.26,8.62-3.18,12.52-5.45
				c4.88-2.85,9.83-5.65,14.99-7.98c4.7-2.13,9.45-2.3,14.13-4.05c6.95-2.6,12.39-3.92,19.9-1.97c1.87,0.49,2.67-2.41,0.8-2.89
				c-5.7-1.48-11.28-1.75-16.91,0.16c-3.86,1.31-7.17,2.3-11.13,3.12c-9.99,2.05-19.14,8.78-27.87,13.73
				c-7.86,4.46-12.24,0.75-18.7-3.58c-3.78-2.53-6.83-1.52-11.05-0.33c-2.25,0.63-4.73,1.73-7.08,1.84c-3.31,0.16-6.75-1.91-9.24-4
				c-5.71-4.79-9.09-11.26-13.33-17.21c-9.02-12.65-26.33-14.92-39.84-8.57C110,189.03,111.52,191.61,113.26,190.8L113.26,190.8z"/>
		</g>
	</g>
	<g>
		<g>
			<path d="M111.2,190.26c2.57,4.41,7.38,5.7,12.11,6.6c6.84,1.31,14.48,1.72,19.72,6.88c5.3,5.21,8.23,12.46,13.32,17.94
				c3.81,4.11,7.99,7.2,13.55,8.46c6.89,1.56,14.09,1.39,21.03,2.79c6.3,1.27,11.83,1.38,17.96-0.98
				c9.5-3.66,17.69-11.74,27.84-13.72c5.41-1.05,10.67-1.1,16.01-2.91c5.86-1.98,11.36-4.97,15.04-10.06
				c1.13-1.57-1.47-3.07-2.59-1.51c-6.55,9.07-18.25,9.9-28.29,11.41c-9.29,1.4-17.84,8.31-26,12.56
				c-5.33,2.77-11.03,3.86-16.96,2.78c-6.05-1.1-12.02-1.79-18.13-2.5c-6.59-0.76-11.79-2.6-16.46-7.48
				c-4.74-4.95-7.72-10.87-11.88-16.22c-3.93-5.05-8.98-7.53-15.15-8.87c-5.78-1.25-15.18-0.92-18.53-6.69
				C112.82,187.08,110.23,188.58,111.2,190.26L111.2,190.26z"/>
		</g>
	</g>
	<g>
		<g>
			<g>
				<path d="M60.98,149.99c-10.22-3-18.5-12.71-18.3-23.67c0.16-8.91,6.96-9.05,13.72-10.66c5.06-1.21,9.82-3.5,14.26-6.16
					c4.07-2.43,8.45-5.07,12.01-8.22c3.9-3.45,3.57-12.59,10.53-10.53c6.03,1.78,8.11,9.47,11.46,14.02
					c2.79,3.79,6.61,6.58,10.37,9.33c1.56,1.14,3.06-1.46,1.51-2.59c-3.83-2.8-7.55-5.61-10.23-9.6c-1.78-2.66-3.06-5.63-4.94-8.23
					c-2.66-3.65-6.67-6.83-11.46-6.1c-1.8,0.28-3.49,1.02-4.76,2.35c-2.38,2.51-1.64,6.14-4.04,8.74c-2.49,2.7-6.72,4.92-9.79,6.87
					c-3.46,2.2-7.06,4.26-10.9,5.72c-5.4,2.04-12.92,1.44-17.3,5.57c-3.55,3.35-3.84,8.84-3.15,13.36
					c1.65,10.8,9.84,19.64,20.21,22.68C62.04,153.43,62.83,150.54,60.98,149.99L60.98,149.99z"/>
			</g>
		</g>
		<g>
			<g>
				<path d="M54.25,114.78c-1.07,5.21-6.29,10.32-2.59,15.7c1.09,1.58,3.69,0.08,2.59-1.51c-2.86-4.15,2.04-9.22,2.9-13.39
					C57.53,113.69,54.64,112.88,54.25,114.78L54.25,114.78z"/>
			</g>
		</g>
		<g>
			<g>
				<path d="M70.15,107.66c-1.51,3.01-3.32,6.01-4.52,9.16c-0.84,2.18-0.97,4.28,0.62,6.11c1.27,1.46,3.39-0.67,2.12-2.12
					c-1.33-1.52,0.86-4.66,1.52-5.96c0.95-1.89,1.9-3.78,2.85-5.67C73.6,107.45,71.01,105.93,70.15,107.66L70.15,107.66z"/>
			</g>
		</g>
		<g>
			<g>
				<path d="M77.59,103.47c-0.14,4.1,0.78,8.02,2.65,11.67c0.88,1.72,3.47,0.2,2.59-1.51c-1.64-3.19-2.36-6.58-2.24-10.15
					C80.65,101.53,77.65,101.54,77.59,103.47L77.59,103.47z"/>
			</g>
		</g>
		<g>
			<g>
				<path d="M83.97,97.57c0.94,3.68,2.92,6.94,5.79,9.43c1.45,1.26,3.58-0.85,2.12-2.12c-2.5-2.17-4.2-4.9-5.02-8.11
					C86.39,94.9,83.49,95.69,83.97,97.57L83.97,97.57z"/>
			</g>
		</g>
	</g>
	<g>
		<g>
			<g>
				<path d="M340.34,183.62c10.61-1.91,19.7-9.98,22.41-20.52c1.14-4.45,1.37-9.91-1.86-13.58c-4.01-4.55-11.93-4.85-17.04-7.56
					c-3.64-1.93-7-4.35-10.19-6.94c-2.81-2.28-6.26-4.61-8.42-7.51c-2.1-2.82-1.09-6.63-3.41-9.39c-1.18-1.4-2.84-2.25-4.62-2.64
					c-4.75-1.04-9,1.86-11.98,5.29c-2.3,2.65-4,5.79-6.4,8.36c-2.95,3.15-6.71,5.32-10.41,7.46c-1.67,0.97-0.16,3.56,1.51,2.59
					c4.42-2.56,8.78-5.19,12.09-9.16c3.47-4.16,6.66-11.54,12.95-11.77c1.65-0.06,4.08,0.95,5,2.34c1.08,1.63,0.46,3.31,0.95,4.97
					c0.53,1.79,1.23,3.14,2.52,4.52c3.44,3.69,7.73,6.94,11.78,9.93c3.95,2.92,8.21,5.46,12.86,7.1c6.23,2.2,12.82,3.11,12.42,11.46
					c-0.55,11.23-10.35,20.26-20.94,22.17C337.65,181.07,338.45,183.96,340.34,183.62L340.34,183.62z"/>
			</g>
		</g>
		<g>
			<g>
				<path d="M347.17,146.63c0.38,3.94,4.73,10.14,1.62,13.69c-1.27,1.45,0.85,3.58,2.12,2.12c4.41-5.03-0.22-10.38-0.74-15.81
					C349.98,144.73,346.98,144.71,347.17,146.63L347.17,146.63z"/>
			</g>
		</g>
		<g>
			<g>
				<path d="M332.28,138.63c0.84,2.23,1.67,4.46,2.51,6.68c0.56,1.51,2.07,4.28,0.56,5.67c-1.42,1.31,0.71,3.43,2.12,2.12
					c1.56-1.44,1.72-3.36,1.29-5.37c-0.71-3.37-2.38-6.69-3.58-9.91C334.51,136.04,331.6,136.82,332.28,138.63L332.28,138.63z"/>
			</g>
		</g>
		<g>
			<g>
				<path d="M325.16,132.5c-0.26,3.57-1.42,6.84-3.39,9.83c-1.07,1.62,1.53,3.12,2.59,1.51c2.26-3.43,3.5-7.25,3.8-11.34
					C328.3,130.57,325.3,130.58,325.16,132.5L325.16,132.5z"/>
			</g>
		</g>
		<g>
			<g>
				<path d="M319.59,125.16c-1.09,2.94-3.04,5.46-5.62,7.25c-1.57,1.09-0.08,3.7,1.51,2.59c3.26-2.26,5.62-5.32,7-9.04
					C323.15,124.15,320.25,123.37,319.59,125.16L319.59,125.16z"/>
			</g>
		</g>
	</g>
	<g>
		<g>
			<path d="M114.6,54.18c0.33,2.49,2.22,4.08,4.34,5.18c3.24,1.68,5.29,3.31,6.67,6.82c0.7,1.78,3.6,1,2.89-0.8
				c-0.95-2.4-2.14-4.72-4.17-6.38c-2.2-1.8-6.4-2.39-6.83-5.62C117.24,51.48,114.35,52.29,114.6,54.18L114.6,54.18z"/>
		</g>
	</g>
	<g>
		<g>
			<path d="M130.17,36.5c2.77-0.21,5.49,0.47,7.6,2.38c1.62,1.47,2.19,3.44,3.43,5.15c2.1,2.9,4.92,2.91,8.15,1.92
				c1.84-0.56,1.06-3.46-0.8-2.89c-1.9,0.58-4.4-0.25-5.53-1.81c-0.38-0.53-0.59-1.21-0.93-1.77c-0.84-1.36-1.88-2.54-3.15-3.5
				c-2.54-1.93-5.61-2.71-8.77-2.48C128.25,33.64,128.24,36.65,130.17,36.5L130.17,36.5z"/>
		</g>
	</g>
	<g>
		<g>
			<path d="M119.67,42.62c0.24,2.05,1.05,3.08,2.46,4.55c1.21,1.26,2.12,2.23,2.89,3.82c0.46,0.95,0.8,1.97,1.36,2.86
				c2.11,3.35,5.46,3.21,8.21,0.66c1.96-1.82,5.01-5.83,2.72-8.38c-1.64-1.82-4.45-1.62-6.09-3.75c-1.33-1.73-1.91-3.7-3.67-5.11
				c-1.49-1.19-3.63,0.92-2.12,2.12c1.9,1.52,2.43,3.94,4.07,5.67c0.81,0.85,1.79,1.47,2.84,1.98c1.22,0.59,2.76,0.39,2.43,2.23
				c-0.21,1.18-2.07,3.35-3.1,3.76c-2.7,1.08-3.35-2.08-4.07-3.57c-0.52-1.07-1.03-2.1-1.82-3c-1.07-1.22-2.9-2.02-3.11-3.85
				C122.45,40.73,119.45,40.71,119.67,42.62L119.67,42.62z"/>
		</g>
	</g>
	<g>
		<g>
			<path d="M122.23,61.88c-0.01,2.36-0.15,4.75-0.03,7.11c0.09,1.69,0.66,3.33,2.31,4.03c1.76,0.75,3.29-1.83,1.51-2.59
				c-1.34-0.57-0.83-3.04-0.82-4.27c0.01-1.43,0.02-2.86,0.03-4.29C125.25,59.95,122.25,59.95,122.23,61.88L122.23,61.88z"/>
		</g>
	</g>
	<g>
		<g>
			<path d="M139.87,42.08c0.99,1.24,2.21,2.2,3.85,1.72c1.64-0.48,6.06-4.05,7.41-1.92c1.03,1.63,3.63,0.12,2.59-1.51
				c-1.09-1.72-2.88-2.37-4.86-2.03c-1.35,0.23-2.57,0.9-3.78,1.5c-1.49,0.74-1.97,1.53-3.09,0.13
				C140.79,38.45,138.68,40.58,139.87,42.08L139.87,42.08z"/>
		</g>
	</g>
	<g>
		<g>
			<path d="M294.98,69.38c-0.43,3.23-4.65,3.83-6.83,5.62c-2.03,1.67-3.23,3.97-4.17,6.38c-0.71,1.8,2.19,2.58,2.89,0.8
				c1.39-3.52,3.42-5.13,6.67-6.82c2.12-1.1,4-2.69,4.34-5.18C298.13,68.29,295.24,67.47,294.98,69.38L294.98,69.38z"/>
		</g>
	</g>
	<g>
		<g>
			<path d="M282.5,50c-3.24-0.27-6.5,0.35-9.17,2.29c-3.36,2.44-4.02,8.41-9.4,6.76c-1.85-0.57-2.64,2.33-0.8,2.89
				c3.22,0.98,6.05,1.01,8.15-1.92c1.36-1.91,1.93-4.04,3.98-5.45c2.15-1.48,4.71-1.79,7.24-1.58
				C284.42,53.16,284.41,50.16,282.5,50L282.5,50z"/>
		</g>
	</g>
	<g>
		<g>
			<path d="M289.8,58.62c-0.22,1.83-2.04,2.63-3.11,3.85c-0.79,0.91-1.31,1.93-1.82,3c-0.72,1.49-1.37,4.65-4.07,3.57
				c-1.03-0.41-2.88-2.59-3.1-3.76c-0.33-1.84,1.21-1.64,2.43-2.23c1.05-0.51,2.03-1.13,2.84-1.98c1.64-1.73,2.17-4.16,4.07-5.67
				c1.51-1.2-0.63-3.31-2.12-2.12c-1.56,1.25-2.23,2.89-3.27,4.54c-1.59,2.53-4.12,2.34-6.16,4c-2.95,2.39,0.41,6.85,2.4,8.7
				c2.57,2.38,5.74,2.77,7.92-0.26c1.63-2.26,2.06-4.74,4.14-6.74c1.62-1.56,2.59-2.64,2.85-4.89
				C293.03,56.71,290.03,56.73,289.8,58.62L289.8,58.62z"/>
		</g>
	</g>
	<g>
		<g>
			<path d="M287.24,77.88c0.01,1.43,0.02,2.86,0.03,4.29c0.01,1.17,0.48,3.71-0.82,4.27c-1.77,0.76-0.24,3.34,1.51,2.59
				c1.65-0.7,2.23-2.35,2.31-4.03c0.12-2.36-0.02-4.75-0.03-7.11C290.23,75.95,287.23,75.95,287.24,77.88L287.24,77.88z"/>
		</g>
	</g>
	<g>
		<g>
			<path d="M270.48,55.96c-0.12,0.15-0.63,0.92-0.89,0.96c-0.32,0.05-1.89-0.94-2.19-1.09c-1.21-0.6-2.44-1.27-3.78-1.5
				c-1.98-0.34-3.77,0.32-4.86,2.03c-1.04,1.63,1.56,3.14,2.59,1.51c1.34-2.12,5.8,1.45,7.41,1.92c1.64,0.48,2.86-0.48,3.85-1.72
				C273.8,56.58,271.69,54.45,270.48,55.96L270.48,55.96z"/>
		</g>
	</g>
	<g>
		<g>
			<path d="M214.19,90.2c11.93-1.9,18.94-13.59,15.63-25.41c-2.92-10.4-15.24-15.23-16.84-26.17c-0.28-1.9-3.17-1.09-2.89,0.8
				c1.17,7.96,7.67,12.91,12.52,18.74c4.15,4.99,5.52,9.92,4.29,16.44c-1.41,7.47-6.18,11.54-13.5,12.71
				C211.49,87.61,212.3,90.5,214.19,90.2L214.19,90.2z"/>
		</g>
	</g>
	<g>
		<g>
			<path d="M208.6,39.25c-0.77,7.55-9.51,10.65-15.28,13.74c-4.77,2.56-9.55,5.55-12.64,10.12c-6.1,9.05-2.6,18.9,6.89,23.49
				c1.73,0.84,3.25-1.75,1.51-2.59c-6.68-3.23-10.7-9.48-7.3-16.82c2.56-5.52,7.88-8.84,13.05-11.61
				c7.04-3.77,15.85-7.32,16.77-16.34C211.79,37.33,208.79,37.34,208.6,39.25L208.6,39.25z"/>
		</g>
	</g>
	<g>
		<g>
			<path d="M192.18,175.05c0.81-5.35,3.42-14.47-3.68-16.46c-3.78-1.06-7.71,0.38-11.47-1.07c-4.95-1.91-4.49-7.37-2.58-11.4
				c0.82-1.73,1.67-4.02,3.32-4.89c2.93-1.55,9.24,0.22,12.54,0.41c3.45,0.2,6.89,0.29,10.35,0.33c3.4,0.03,6.81,0.06,10.21-0.02
				c2.17-0.05,5.17-0.71,7.24-0.01c-0.37-0.48-0.73-0.96-1.1-1.45c0.11,1.55-0.22,3.11-0.13,4.69c0.13,2.18,1.37,6.21,0.75,8.32
				c-1.95,6.58-11.39,3.34-16.41,3.89c-8.97,0.97-10.96,8.23-10.8,16.14c0.04,1.93,3.04,1.93,3,0c-0.15-7.37,1.8-13.16,10.17-13.25
				c4.56-0.05,9.41,1.15,13.74-0.87c2.72-1.27,3.34-3.04,3.3-5.9c-0.03-2.77-0.59-5.56-0.75-8.32c-0.09-1.59,0.24-3.13,0.13-4.69
				c-0.05-0.7-0.44-1.22-1.1-1.45c-2.12-0.71-5.03-0.18-7.23-0.12c-3.9,0.11-7.79,0.08-11.69,0.04c-4.11-0.05-8.22-0.21-12.32-0.49
				c-3.11-0.21-9.05-1.97-11.92-0.28c-1.42,0.84-1.6,2.12-2.28,3.52c-1.03,2.12-2.33,4.05-3,6.35c-0.95,3.25-0.86,6.76,1.36,9.46
				c2.22,2.7,5.73,3.6,9.08,3.77c3.15,0.16,5.98-0.92,8.08,1.91c2.18,2.94,0.83,7.56,0.31,11.04
				C189,176.15,191.89,176.96,192.18,175.05L192.18,175.05z"/>
		</g>
	</g>
	<g>
		<g>
			<path d="M179.51,159.2c3.59-3.76,2.32-8.72,3.38-13.36c0.43-1.88-2.46-2.68-2.89-0.8c-0.88,3.85,0.33,8.95-2.61,12.03
				C176.06,158.48,178.17,160.6,179.51,159.2L179.51,159.2z"/>
		</g>
	</g>
	<g>
		<g>
			<path d="M188.89,159.66c1.75-4.26,3.08-8.63,4-13.14c0.39-1.88-2.5-2.69-2.89-0.8c-0.92,4.51-2.26,8.88-4,13.14
				C185.27,160.65,188.17,161.42,188.89,159.66L188.89,159.66z"/>
		</g>
	</g>
	<g>
		<g>
			<path d="M203.46,158.17c-0.28-3.91-0.35-7.81-0.2-11.72c0.07-1.93-2.93-1.93-3,0c-0.15,3.91-0.08,7.82,0.2,11.72
				C200.6,160.08,203.6,160.1,203.46,158.17L203.46,158.17z"/>
		</g>
	</g>
	<g>
		<g>
			<path d="M213.75,156.93c-0.63-3.1-0.86-6.21-0.75-9.37c0.07-1.93-2.93-1.93-3,0c-0.13,3.43,0.17,6.81,0.85,10.17
				C211.24,159.62,214.14,158.82,213.75,156.93L213.75,156.93z"/>
		</g>
	</g>
	<g>
		<g>
			<path d="M172.95,149.1c-1.11-3.67-1.4-10.24-4.15-13.04c-1.15-1.17-3.31-1.59-4.75-2.13c-3.11-1.18-5.34-3.21-7.07-6.05
				c-2.43-3.99-3.43-8.87-3.04-13.51c1.02-12.01,10.67-16.91,21.56-18.23c7.28-0.88,14.89-1.39,20.2-7.05
				c1.32-1.41-0.8-3.53-2.12-2.12c-7.43,7.93-20.29,4.91-29.67,8.82c-7.2,3.01-11.74,9.4-12.8,17.06
				c-1.05,7.58,1.35,16.65,7.53,21.58c1.49,1.19,2.89,1.72,4.61,2.39c2.42,0.94,3.46,1.15,4.2,3.64c0.93,3.13,1.67,6.31,2.61,9.44
				C170.61,151.74,173.51,150.96,172.95,149.1L172.95,149.1z"/>
		</g>
	</g>
	<g>
		<g>
			<path d="M52.17,160.78c5.19-2.58,8.1,3.63,7.06,7.77c-0.73,2.88-2.63,5.12-4.67,7.17c-2.55,2.56-5.91,4.59-7.79,7.75
				c-2.96,4.98-0.21,9.95,5.5,10.52c6.28,0.63,11.67-3.66,16.25-7.37c3.33-2.7,7.69-7.14,12.28-7.3c7.84-0.28,8.83,8.94,7.31,14.46
				c-0.51,1.86,2.38,2.66,2.89,0.8c1.96-7.11,0.11-16.98-8.66-18.17c-8.78-1.18-15.65,9.11-22.56,12.8
				c-1.45,0.77-2.96,1.37-4.59,1.62c-2.78,0.43-8.39,0.57-5.83-5.84c0.95-2.37,4.36-4.38,6.17-6.07c3.22-3,6.29-6.57,6.88-11.11
				c0.87-6.7-5.13-12.91-11.76-9.62C48.92,159.05,50.44,161.63,52.17,160.78L52.17,160.78z"/>
		</g>
	</g>
	<g>
		<g>
			<path d="M331.26,169.2c-5.7-2.91-16.63-0.28-17.39,6.9c-0.59,5.61,3.05,10.22,6.92,13.81c2.51,2.33,12.35,10.08,2.67,12.06
				c-3.6,0.73-7.67-2.02-10.44-4.04c-6.98-5.08-17.35-16.47-25.63-6.78c-5.1,5.98-0.39,16.31,1.66,22.74
				c0.58,1.83,3.48,1.05,2.89-0.8c-1.93-6.04-8.78-23.24,3.58-22.78c5.54,0.2,10.59,6.08,14.69,9.23c3.18,2.45,6.65,4.69,10.69,5.32
				c7.67,1.18,12.87-5.15,7.67-11.71c-3.69-4.65-9.91-7.39-11.48-13.6c-1.03-4.1,1.12-6.62,4.75-7.66c2.33-0.67,5.62-1.26,7.89-0.09
				C331.46,172.67,332.98,170.09,331.26,169.2L331.26,169.2z"/>
		</g>
	</g>
	<g>
		<g>
			<path d="M220.8,151.26c1.71-2.75,3.08-5.7,4.75-8.45c2.44-4.01,5.89-2.99,9.76-4.31c6.85-2.33,11.82-9.75,12.37-16.87
				c0.61-7.93-4.55-14.89-11.06-18.85c-7.78-4.73-19.03-5.6-23.7-14.3c-0.91-1.7-3.51-0.19-2.59,1.51
				c7.55,14.05,36.93,11.49,34.26,32.15c-0.68,5.22-4.19,10.81-9.03,13.02c-2.73,1.25-5.7,0.88-8.44,1.95
				c-4.58,1.8-6.49,8.71-8.91,12.62C217.18,151.39,219.78,152.9,220.8,151.26L220.8,151.26z"/>
		</g>
	</g>
	<g>
		<g>
			<path d="M194.03,123.15c-1.98,1.82,0.11,4.87,2.55,3.95c2.4-0.91,2.27-4.53-0.29-5.09c-2.65-0.58-4.24,1.94-4.58,4.21
				c-0.4,2.6,1.17,4.87,3.59,5.74c1.82,0.65,2.6-2.24,0.8-2.89c-0.86-0.31-1.47-1.12-1.47-2.04c0-0.39,0.12-0.83,0.26-1.19
				c0.09-0.28,0.23-0.54,0.41-0.78c0.29-0.23,0.58-0.16,0.86,0.21C197.57,123.96,195.45,121.85,194.03,123.15L194.03,123.15z"/>
		</g>
	</g>
	<g>
		<g>
			<path d="M208.77,112.05c-5.59-7.11-15.6-7.54-21.98-1.24c-1.37,1.36,0.75,3.48,2.12,2.12c5.33-5.27,13.15-4.6,17.74,1.24
				C207.84,115.68,209.95,113.55,208.77,112.05L208.77,112.05z"/>
		</g>
	</g>
	<g>
		<g>
			<path d="M187.2,113.26c2.43,3.21,4.92,6.57,9.3,6.74c4.49,0.18,9.05-2.28,12.06-5.44c1.33-1.4-0.79-3.52-2.12-2.12
				c-2.22,2.33-5.56,4.38-8.88,4.53c-3.75,0.17-5.7-2.51-7.76-5.23C188.64,110.22,186.04,111.72,187.2,113.26L187.2,113.26z"/>
		</g>
	</g>
	<g>
		<g>
			<path d="M213.45,112.18c1.12,0.17,2.21-0.16,2.73-1.26c0.51-1.09,0.09-2.46-0.93-3.09c-2.33-1.46-5.23,1.11-3.79,3.56
				c1.37,2.33,4.42,1.77,6.31,0.45c1.93-1.35,2.76-3.93,1.86-6.13c-0.31-0.75-0.99-1.27-1.85-1.05c-0.71,0.19-1.36,1.1-1.05,1.85
				c0.38,0.93,0.36,1.94-0.42,2.67c-0.36,0.34-0.88,0.57-1.36,0.72c-0.24,0.08-0.54,0.03-0.76,0.1c-0.05-0.04-0.1-0.09-0.15-0.13
				c-0.37,0.88-0.3,0.69,0.2-0.58c-0.81-0.12-1.6,0.2-1.85,1.05C212.2,111.04,212.65,112.06,213.45,112.18L213.45,112.18z"/>
		</g>
	</g>
	<g>
		<g>
			<path d="M184.89,105.86c-0.77-2.5-4.34-2.28-4.68,0.37c-0.34,2.66,3.13,4.2,4.75,1.99c1.62-2.21-0.08-4.81-2.1-6.04
				c-2.08-1.27-4.73-0.85-6.43,0.86c-1.37,1.37,0.75,3.49,2.12,2.12c0.6-0.6,1.44-0.91,2.28-0.63c0.45,0.15,0.82,0.45,1.15,0.78
				c0.22,0.19,0.4,0.42,0.55,0.67c0.21,0.39,0.03,0.62-0.54,0.69C182.56,108.5,185.46,107.71,184.89,105.86L184.89,105.86z"/>
		</g>
	</g>
	<g>
		<g>
			<path d="M168.15,137.43c2.11-3.17,3.41-6.66,5.25-9.97c3.01-5.43,6.31-6.84,12.26-7.04c4.1-0.13,7.19,0.75,11.24-0.48
				c1.84-0.56,1.06-3.46-0.8-2.89c-5.65,1.72-11.97-1.09-17.75,1.29c-7.18,2.95-8.89,11.72-12.79,17.58
				C164.49,137.53,167.08,139.03,168.15,137.43L168.15,137.43z"/>
		</g>
	</g>
	<g>
		<g>
			<path d="M227.78,138.57c-4.63-6.51-3.84-15.37-11.47-19.85c-5.42-3.18-12.51-0.38-18.41-1.66c-1.88-0.41-2.69,2.48-0.8,2.89
				c2.79,0.61,5.43,0.94,8.29,0.73c2.35-0.17,4.61-0.78,6.96-0.26c8.67,1.9,8.46,13.51,12.84,19.66
				C226.3,141.64,228.91,140.14,227.78,138.57L227.78,138.57z"/>
		</g>
	</g>
	<g>
		<g>
			<path d="M195.65,87.37c-2.08,1.75-3.36,4.98-2.85,7.67c0.26,1.42,1.05,2.63,1.65,3.92c1.88,4.05-1.01,7.07-4.31,9.11
				c-1.64,1.02-0.13,3.61,1.51,2.59c2.88-1.78,6.04-3.94,6.67-7.54c0.83-4.77-5.43-9.53-0.55-13.64
				C199.25,88.24,197.12,86.13,195.65,87.37L195.65,87.37z"/>
		</g>
	</g>
	<g>
		<g>
			<path d="M207.92,89.55c-0.13,4.89-5.97,6.93-6.46,11.99c-0.47,4.83,0.52,7.41,3.87,10.93c1.33,1.4,3.45-0.72,2.12-2.12
				c-3.92-4.11-4.23-9.11-0.26-13.35c2.1-2.24,3.65-4.26,3.74-7.45C210.98,87.62,207.98,87.62,207.92,89.55L207.92,89.55z"/>
		</g>
	</g>
	<g>
		<g>
			<path d="M189.58,199.15c1.93,0,1.93-3,0-3C187.65,196.15,187.65,199.15,189.58,199.15L189.58,199.15z"/>
		</g>
	</g>
	<g>
		<g>
			<path d="M186.44,225.52c1.93,0,1.93-3,0-3C184.51,222.52,184.51,225.52,186.44,225.52L186.44,225.52z"/>
		</g>
	</g>
	<g>
		<g>
			<path d="M129.13,198.52c1.77,3.56,1.91,7.27,0.27,10.88c-0.89,1.97-2.26,3.79-2.47,6c-0.23,2.43,0.94,4.61,2.79,6.12
				c7.92,6.45,17.16-3.74,25.6-0.59c1.81,0.68,2.59-2.22,0.8-2.89c-3.21-1.2-6.3-0.99-9.58-0.08c-4.23,1.17-10.06,4.68-14.23,1.75
				c-4.63-3.26,0.83-9.93,1.23-13.88c0.32-3.18-0.43-6-1.83-8.82C130.86,195.28,128.27,196.8,129.13,198.52L129.13,198.52z"/>
		</g>
	</g>
	<g>
		<g>
			<path d="M130.6,208.22c0.39,2.35,2.22,3.69,4.33,4.52c3.27,1.28,6.29,2.95,5.49,7.07c-0.36,1.89,2.53,2.69,2.89,0.8
				c0.5-2.62,0.02-5.25-1.69-7.36c-0.86-1.06-1.92-1.83-3.15-2.39c-1.85-0.84-4.59-1.03-4.98-3.43
				C133.18,205.52,130.29,206.33,130.6,208.22L130.6,208.22z"/>
		</g>
	</g>
	<g>
		<g>
			<path d="M242.75,214.76c-2.2,2.25-3.79,4.86-4.39,7.99c-0.84,4.34,2.73,11.65-2.91,13.28c-4.79,1.39-8.9-2.91-12.52-5.39
				c-3.01-2.06-6.08-3.39-9.78-3.2c-1.92,0.1-1.93,3.1,0,3c8.94-0.46,14.44,11.72,23.88,8.37c2.43-0.86,4.24-2.64,4.81-5.17
				c0.59-2.62-0.68-5.08-0.75-7.68c-0.09-3.49,1.37-6.62,3.78-9.08C246.22,215.5,244.1,213.38,242.75,214.76L242.75,214.76z"/>
		</g>
	</g>
	<g>
		<g>
			<path d="M237.94,224.17c-1.06,2.09-3.71,1.48-5.62,1.71c-1.43,0.17-2.72,0.57-3.92,1.38c-2.26,1.52-3.45,3.88-3.76,6.53
				c-0.22,1.91,2.78,1.9,3,0c0.48-4.16,3.97-4.79,7.42-5.04c2.28-0.16,4.39-0.93,5.47-3.07
				C241.4,223.97,238.82,222.45,237.94,224.17L237.94,224.17z"/>
		</g>
	</g>
	<g>
		<g>
			<path d="M188.29,87.13c1.15,0.63,2.33,0.88,3.62,1.05c0.69,0.09,1.39,0.18,2.08,0.27c0.65,0.08,1.8,0.01,2.36,0.38
				c-0.23-0.3-0.46-0.6-0.69-0.9c-0.01-0.11-0.02-0.21-0.03-0.32c0.35-0.35,0.7-0.7,1.05-1.05c-0.07,0.03-0.14,0.05-0.21,0.08
				c-1.8,0.66-1.02,3.56,0.8,2.89c1.72-0.63,1.87-2.84,0.1-3.59c-2.35-0.99-5.26-0.16-7.57-1.42
				C188.11,83.61,186.59,86.2,188.29,87.13L188.29,87.13z"/>
		</g>
	</g>
	<g>
		<g>
			<path d="M216.88,86.28c-1.64,0.49-3.3,0.74-5,0.89c-1.26,0.11-2.89-0.04-3.86,0.92c-1.84,1.81,0.8,4.07,2.6,2.31
				c1.39-1.35-0.74-3.47-2.12-2.12c-0.11,0.1-0.21,0.2-0.32,0.31c0.35-0.15,0.71-0.29,1.06-0.44c-0.07,0-0.15,0-0.22,0
				c0.35,0.15,0.71,0.29,1.06,0.44c-0.05-0.05-0.09-0.1-0.14-0.15c0.13,0.49,0.26,0.97,0.39,1.46c-0.47,0.47-0.36,0.59,0.33,0.38
				c0.41-0.03,0.81-0.07,1.22-0.1c0.61-0.05,1.22-0.11,1.83-0.19c1.35-0.17,2.67-0.42,3.97-0.81
				C219.52,88.62,218.74,85.72,216.88,86.28L216.88,86.28z"/>
		</g>
	</g>
</g>
</svg>
